<svg width="1200" height="900" viewBox="0 0 1200 900" fill="none" xmlns="http://www.w3.org/2000/svg">
  <rect width="1200" height="900" fill="#FAF3E6"/>
  <rect x="92" y="88" width="1016" height="724" rx="42" fill="#FFF9F0" stroke="#E0CFBA" stroke-width="8"/>
  <rect x="164" y="176" width="870" height="516" rx="34" fill="#F7E3BF"/>
  <rect x="232" y="250" width="390" height="290" rx="22" fill="#FFF7E5"/>
  <path d="M340 470L402 332L463 470H340Z" fill="#F5AE3D"/>
  <path d="M463 470L526 332L588 470H463Z" fill="#E78629"/>
  <circle cx="395" cy="387" r="15" fill="#AF3524"/>
  <circle cx="512" cy="392" r="15" fill="#AF3524"/>
  <rect x="660" y="264" width="268" height="172" rx="20" fill="#FFF8ED"/>
  <text x="694" y="332" fill="#BF5700" font-family="Arial, sans-serif" font-size="42" font-weight="700">FREE PIZZA</text>
  <text x="717" y="382" fill="#1D1A17" font-family="Arial, sans-serif" font-size="30">Union • until 2 PM</text>
  <rect x="212" y="726" width="370" height="42" rx="21" fill="#BF5700" fill-opacity="0.16"/>
  <rect x="604" y="726" width="256" height="42" rx="21" fill="#F0C36B"/>
  <text x="214" y="153" fill="#1D1A17" font-family="Arial, sans-serif" font-size="52" font-weight="700">Free Pizza Pop-Up</text>
</svg>
